700 0 1 0           
30 Autodesk Translation Framework 20 ASM 226.0.3.65535 NT 24 Sun Aug 28 12:19:46 2022 
1 9.999999999999999547e-07 1.000000000000000036e-10 
body $1 -1 $-1 $2 $-1 $3 #
rgb_color-st-attrib $-1 -1 $4 $-1 $0 0.7490196078431372584 0.7490196078431372584 0.7490196078431372584 #
lump $-1 -1 $-1 $-1 $5 $0 #
transform $-1 -1 1 0 0 0 1 0 0 0 1 0 0 0 1 no_rotate no_reflect no_shear #
DXID-attrib $-1 -1 $-1 $1 $0 @10 ASM ENTITY @111 HERRAMIENTAM-MARCADOR.IPT|:|F085155C9564D312C57A5D6306B7DABBEB0A9275|:|DA4B9237BACCCDF19C0760CAB7AEC4A8359010B0 #
shell $-1 -1 $-1 $-1 $-1 $6 $-1 $2 #
face $7 -1 $-1 $8 $9 $5 $-1 $10 forward single #
DXID-attrib $-1 -1 $-1 $-1 $6 @10 ASM ENTITY @36 17a8c625-d131-4ea3-a161-bc6bcd78ecfd #
face $11 -1 $-1 $12 $13 $5 $-1 $14 forward single #
loop $-1 -1 $-1 $15 $16 $6 #
cone-surface $-1 -1 $-1 53.2612440737057824 0 114.471678086016027 0.6427876096865392519 0 0.7660444431189782355 2.355586662590852587 0 -1.976571899786103925 1 I I -0.3549151741145830097 0.9348985074237819992 3.074999999999993072 forward I I I I #
DXID-attrib $-1 -1 $-1 $-1 $8 @10 ASM ENTITY @36 a99c16bd-845e-47e0-9b4b-b1bb33c3c0b7 #
face $17 -1 $-1 $18 $19 $5 $-1 $20 forward single #
loop $-1 -1 $-1 $21 $22 $8 #
cone-surface $-1 -1 $-1 48.76173080590000097 0 109.1093669841831684 0.6427876096865384747 0 0.7660444431189787906 2.681155550916426655 0 -2.249756633902884939 1 I I 0 1 3.500000000000000888 forward I I I I #
loop $-1 -1 $-1 $-1 $23 $6 #
coedge $-1 -1 $-1 $16 $16 $-1 $24 forward $9 $-1 #
DXID-attrib $-1 -1 $-1 $-1 $12 @10 ASM ENTITY @36 a9762f7c-3b10-4ee1-942a-55dd0a751e3c #
face $25 -1 $-1 $26 $27 $5 $-1 $28 forward single #
loop $-1 -1 $-1 $29 $30 $12 #
plane-surface $-1 -1 $-1 53.2612440737057824 0 114.471678086016027 0.6427876096865391409 0 0.7660444431189782355 7.660444431189782577 0 -6.427876096865391631 forward_v I I I I #
loop $-1 -1 $-1 $-1 $31 $8 #
coedge $-1 -1 $-1 $22 $22 $32 $33 reversed $13 $-1 #
coedge $-1 -1 $-1 $23 $23 $30 $34 reversed $15 $-1 #
edge $-1 -1 $-1 $35 1 $35 0 $16 $-1 forward @7 unknown #
DXID-attrib $-1 -1 $-1 $-1 $18 @10 ASM ENTITY @36 13941bf5-cd36-444f-a8ca-5646f33e4894 #
face $36 -1 $-1 $37 $38 $5 $-1 $39 forward single #
loop $-1 -1 $-1 $40 $41 $18 #
cone-surface $-1 -1 $-1 34.94179719763940994 0 92.63941145712510661 0.6427876096865390299 0 0.7660444431189783465 3.638711104815147479 0 -3.053241146011060447 1 I I 0 1 4.750000000000000888 forward I I I I #
loop $-1 -1 $-1 $-1 $32 $12 #
coedge $-1 -1 $-1 $30 $30 $23 $34 forward $19 $-1 #
coedge $-1 -1 $-1 $31 $31 $42 $43 reversed $21 $-1 #
coedge $-1 -1 $-1 $32 $32 $22 $33 forward $29 $-1 #
edge $44 -1 $-1 $45 0 $45 6.283185307179586232 $22 $46 forward @7 unknown #
edge $-1 -1 $-1 $47 0 $47 6.283185307179586232 $30 $48 forward @7 unknown #
vertex $-1 -1 $-1 $24 $49 #
DXID-attrib $-1 -1 $-1 $-1 $26 @10 ASM ENTITY @36 01864967-ced3-49f1-ad93-c014723ffaa2 #
face $50 -1 $-1 $51 $52 $5 $-1 $53 reversed single #
loop $-1 -1 $-1 $54 $42 $26 #
plane-surface $-1 -1 $-1 48.76173080590000097 0 109.1093669841831684 0.6427876096865391409 0 0.7660444431189782355 7.660444431189784353 0 -6.427876096865392519 forward_v I I I I #
loop $-1 -1 $-1 $-1 $55 $18 #
coedge $-1 -1 $-1 $41 $41 $56 $57 reversed $27 $-1 #
coedge $-1 -1 $-1 $42 $42 $31 $43 forward $38 $-1 #
edge $-1 -1 $-1 $58 0 $58 6.283185307179586232 $42 $59 forward @7 unknown #
DXID-attrib $-1 -1 $-1 $-1 $33 @10 ASM ENTITY @36 5f878cd8-c851-495f-9cbf-73321bfb5114 #
vertex $-1 -1 $-1 $33 $60 #
ellipse-curve $-1 -1 $-1 53.2612440737057824 0 114.471678086016027 0.6427876096865391409 0 0.7660444431189782355 2.681155550916423991 0 -2.24975663390288716 1 I I #
vertex $-1 -1 $-1 $34 $61 #
ellipse-curve $-1 -1 $-1 53.2612440737057824 0 114.471678086016027 -0.6427876096865391409 -0 -0.7660444431189782355 2.355586662590852587 0 -1.976571899786103925 1 I I #
point $-1 -1 $-1 58.467823712166755 0 120.6766380752797545 #
DXID-attrib $-1 -1 $-1 $-1 $37 @10 ASM ENTITY @36 c22b0c8e-54e4-4cab-bc8f-11f1dc587d19 #
face $62 -1 $-1 $63 $64 $5 $-1 $65 forward single #
loop $-1 -1 $-1 $66 $67 $37 #
plane-surface $-1 -1 $-1 -13.91006113853757498 0 34.42003378008273273 0.6427876096865391409 0 0.7660444431189782355 7.660444431189782577 0 -6.427876096865391631 forward_v I I I I #
loop $-1 -1 $-1 $-1 $56 $26 #
coedge $-1 -1 $-1 $55 $55 $68 $69 reversed $40 $-1 #
coedge $-1 -1 $-1 $56 $56 $41 $57 forward $54 $-1 #
edge $70 -1 $-1 $71 0 $71 6.283185307179586232 $41 $72 forward @7 unknown #
vertex $-1 -1 $-1 $43 $73 #
ellipse-curve $-1 -1 $-1 48.76173080590000097 0 109.1093669841831684 -0.6427876096865391409 -0 -0.7660444431189782355 2.681155550916426655 0 -2.249756633902884939 1 I I #
point $-1 -1 $-1 55.94239962462219751 0 112.2219214521131221 #
point $-1 -1 $-1 55.61683073629663454 0 112.4951061862299184 #
DXID-attrib $-1 -1 $-1 $-1 $51 @10 ASM ENTITY @36 f986746f-b777-4433-9091-a17efeab4516 #
face $74 -1 $-1 $75 $76 $5 $-1 $77 forward single #
loop $-1 -1 $-1 $78 $79 $51 #
cone-surface $-1 -1 $-1 -13.91006113853757498 0 34.42003378008273273 0.6427876096865391409 0 0.7660444431189783465 4.40475554793412627 0 -3.696028755697600143 1 I I 0 1 5.750000000000001776 forward I I I I #
loop $-1 -1 $-1 $-1 $80 $37 #
coedge $-1 -1 $-1 $67 $67 $81 $82 reversed $52 $-1 #
coedge $-1 -1 $-1 $68 $68 $55 $69 forward $76 $-1 #
edge $-1 -1 $-1 $83 0 $83 6.283185307179586232 $68 $84 forward @7 unknown #
DXID-attrib $-1 -1 $-1 $-1 $57 @10 ASM ENTITY @36 e781961a-79a4-424f-ba08-6600ba7374f2 #
vertex $-1 -1 $-1 $57 $85 #
ellipse-curve $-1 -1 $-1 48.76173080590000097 0 109.1093669841831684 0.6427876096865391409 0 0.7660444431189782355 3.638711104815147479 0 -3.053241146011061335 1 I I #
point $-1 -1 $-1 51.44288635681643029 0 106.8596103502802777 #
DXID-attrib $-1 -1 $-1 $-1 $63 @10 ASM ENTITY @36 6dcdfc06-aaca-40aa-a62d-f0c37e67a7bb #
face $86 -1 $-1 $87 $88 $5 $-1 $89 forward single #
loop $-1 -1 $-1 $90 $68 $63 #
plane-surface $-1 -1 $-1 34.94179719763940994 0 92.63941145712510661 0.6427876096865391409 0 0.7660444431189782355 7.660444431189784353 0 -6.427876096865392519 forward_v I I I I #
loop $-1 -1 $-1 $-1 $81 $51 #
coedge $-1 -1 $-1 $79 $79 $91 $92 reversed $64 $-1 #
coedge $-1 -1 $-1 $80 $80 $93 $94 forward $66 $-1 #
coedge $-1 -1 $-1 $81 $81 $67 $82 forward $78 $-1 #
edge $95 -1 $-1 $96 0 $96 6.283185307179586232 $81 $97 forward @7 unknown #
vertex $-1 -1 $-1 $69 $98 #
ellipse-curve $-1 -1 $-1 34.94179719763940994 0 92.63941145712510661 -0.6427876096865391409 -0 -0.7660444431189782355 3.638711104815147479 0 -3.053241146011060447 1 I I #
point $-1 -1 $-1 52.4004419107151449 0 106.0561258381720791 #
DXID-attrib $-1 -1 $-1 $-1 $75 @10 ASM ENTITY @36 6ec99f56-8613-4d14-b558-d02d51c0bcd5 #
face $99 -1 $-1 $100 $101 $5 $-1 $102 reversed single #
loop $-1 -1 $-1 $103 $93 $75 #
cone-surface $-1 -1 $-1 -17.12399918697027346 0 30.58981156448784589 0.6427876096865393629 0 0.7660444431189781245 4.021733326374635098 0 -3.374634950854331628 1 I I 0 1 5.25 forward I I I I #
loop $-1 -1 $-1 $-1 $91 $63 #
coedge $-1 -1 $-1 $91 $91 $79 $92 forward $90 $-1 #
edge $104 -1 $-1 $105 0 $105 6.283185307179586232 $79 $106 forward @7 unknown #
coedge $-1 -1 $-1 $93 $93 $80 $94 reversed $88 $-1 #
edge $-1 -1 $-1 $107 0 $107 6.283185307179586232 $93 $108 forward @7 unknown #
DXID-attrib $-1 -1 $-1 $-1 $82 @10 ASM ENTITY @36 e7af6d64-a247-417f-911d-bc5467709f69 #
vertex $-1 -1 $-1 $82 $109 #
ellipse-curve $-1 -1 $-1 -13.91006113853757498 0 34.42003378008273273 0.6427876096865391409 0 0.7660444431189782355 4.404755547934125381 0 -3.696028755697600587 1 I I #
point $-1 -1 $-1 38.58050830245455387 0 89.58617031111404572 #
DXID-attrib $-1 -1 $-1 $-1 $87 @10 ASM ENTITY @36 ca050fc6-8649-4c2d-b9d9-1b6607ce6fe2 #
face $110 -1 $-1 $111 $112 $5 $-1 $113 reversed single #
loop $-1 -1 $-1 $114 $115 $87 #
cone-surface $-1 -1 $-1 16.68053012562223358 0 76.63265897810978799 -0.7660444431189781245 0 0.6427876096865394739 0 2.458499999999999908 0 1 I I -0 1 2.458499999999999908 reversed I I I I #
loop $-1 -1 $-1 $-1 $116 $75 #
DXID-attrib $-1 -1 $-1 $-1 $92 @10 ASM ENTITY @36 d822059c-74ce-4973-904e-5fb1560d5e86 #
vertex $-1 -1 $-1 $92 $117 #
ellipse-curve $-1 -1 $-1 34.94179719763940994 0 92.63941145712510661 0.6427876096865391409 0 0.7660444431189782355 4.40475554793412627 0 -3.696028755697601476 1 I I #
vertex $-1 -1 $-1 $94 $118 #
ellipse-curve $-1 -1 $-1 -13.91006113853757498 0 34.42003378008273273 0.6427876096865391409 0 0.7660444431189782355 4.021733326374635986 0 -3.374634950854330739 1 I I #
point $-1 -1 $-1 -9.505305590603450483 0 30.72400502438512859 #
DXID-attrib $-1 -1 $-1 $-1 $100 @10 ASM ENTITY @36 7775dc5a-baac-4b44-8c06-d27d3b8a9af2 #
face $119 -1 $-1 $120 $121 $5 $-1 $122 forward single #
loop $-1 -1 $-1 $123 $124 $100 #
cone-surface $-1 -1 $-1 34.94179719763938863 0 92.63941145712507819 -0.6427876096865391409 0 -0.7660444431189782355 4.48135999224602255 0 -3.760307516666253846 1 I I 0 1 5.849999999999999645 forward I I I I #
loop $-1 -1 $-1 $-1 $125 $87 #
coedge $-1 -1 $-1 $126 $126 $127 $128 reversed $101 $-1 #
coedge $-1 -1 $-1 $116 $116 $129 $130 reversed $103 $-1 #
point $-1 -1 $-1 39.34655274557353266 0 88.94338270142750957 #
point $-1 -1 $-1 -9.888327812162939878 0 31.04539882922840377 #
DXID-attrib $-1 -1 $-1 $-1 $111 @10 ASM ENTITY @36 4d75412b-7aed-4457-8b79-76c65f34e88b #
face $131 -1 $-1 $132 $133 $5 $-1 $134 reversed single #
loop $-1 -1 $-1 $135 $129 $111 #
plane-surface $-1 -1 $-1 -17.12399918697027346 0 30.58981156448784589 0.6427876096865391409 0 0.7660444431189782355 7.660444431189782577 0 -6.427876096865391631 forward_v I I I I #
loop $-1 -1 $-1 $136 $137 $100 #
coedge $-1 -1 $-1 $124 $124 $125 $138 forward $112 $-1 #
coedge $-1 -1 $-1 $125 $125 $124 $138 reversed $114 $-1 #
coedge $-1 -1 $-1 $115 $115 $139 $140 reversed $101 $-1 #
coedge $-1 -1 $-1 $139 $139 $115 $128 forward $133 $-1 #
edge $-1 -1 $-1 $141 0.3736598451122303266 $142 1.120979535336692479 $127 $143 forward @7 unknown #
coedge $-1 -1 $-1 $129 $129 $116 $130 forward $121 $-1 #
edge $-1 -1 $-1 $144 0 $144 6.283185307179586232 $129 $145 forward @7 unknown #
DXID-attrib $-1 -1 $-1 $-1 $120 @10 ASM ENTITY @36 20c8e8af-f18c-44e7-a69e-350e9916be97 #
face $146 -1 $-1 $147 $148 $5 $-1 $149 forward single #
loop $-1 -1 $-1 $150 $127 $120 #
cone-surface $-1 -1 $-1 -19.05236201602992097 0 28.29167823513090596 0.6427876096865393629 0 0.7660444431189781245 0 7.250000000000000888 0 1 I I 0 -1 7.250000000000000888 forward I I I I #
loop $-1 -1 $-1 $-1 $151 $111 #
loop $-1 -1 $-1 $-1 $152 $100 #
coedge $-1 -1 $-1 $137 $137 $151 $153 forward $123 $-1 #
edge $-1 -1 $-1 $154 0 $154 1.502237439921422002 $124 $155 forward @7 unknown #
coedge $-1 -1 $-1 $127 $127 $126 $140 forward $133 $-1 #
edge $-1 -1 $-1 $142 1.120979535336692479 $141 1.868299225561154575 $139 $156 forward @7 unknown #
vertex $-1 -1 $-1 $128 $157 #
vertex $-1 -1 $-1 $128 $158 #
intcurve-curve $-1 -1 $-1 forward { surfintcur full nubs 3 open 9 
	0.3736598451122303266 3 0.4670515066036011742 2 0.5604431680949719663 2 0.6538814291597161432 2 0.7473196902244604312 2 
	0.8407579512892056073 2 0.9341962123539506724 2 1.027587873845321464 2 1.120979535336692479 3 
	12.38077901413549675 7.979727989493312634e-16 77.03123472908900737 
	12.38077901413549675 0.3113055383045703062 77.03123472908900737 
	12.43795518932149591 0.6417158170644388093 77.06512883769180178 
	12.66061681988077225 1.246758950773686259 77.20684152416610857 
	12.82524733515373505 1.521577957711590212 77.31520674523331138 
	13.18616208050108263 1.955374283916686995 77.57864420183960874 
	13.40717629836931657 2.144126110825483433 77.75188594531076092 
	13.85953234417966584 2.395746293168297125 78.1619332422567652 
	14.08993818130338482 2.458500000000000796 78.39984043279706327 
	14.4903445578572132 2.458500000000000796 78.87702617055271048 
	14.6846278498582965 2.395746293168294017 79.14524377538261035 
	15.00989480398082598 2.144126110825482101 79.66193148229051246 
	15.14212589992528457 1.955374283916691436 79.90967111062269623 
	15.33888896180229366 1.521577957711590212 80.31084818428608685 
	15.41702008270062407 1.246758950773660501 80.49179501527007119 
	15.51791504865774662 0.6417158170644112758 80.7356820651017415 
	15.54136569096421638 0.311305538304569529 80.79787525590502639 
	15.54136569096421638 -6.07153216591882483e-16 80.79787525590502639 
	0.00177308334792820768 
	
	cone 16.68053012562223358 0 76.63265897810978799 -0.7660444431189781245 0 0.6427876096865394739 0 2.458499999999999908 0 1 I I -0 1 2.458499999999999908 reversed I I I I 
	cone -19.05236201602992097 0 28.29167823513090596 0.6427876096865393629 0 0.7660444431189781245 0 7.250000000000000888 0 1 I I -0 1 7.250000000000000888 forward I I I I 
	nullbs 
	nullbs 
	I I 
	0 
	0 
	0 
	} I I #
vertex $-1 -1 $-1 $130 $159 #
ellipse-curve $-1 -1 $-1 -17.12399918697027346 0 30.58981156448784589 -0.6427876096865391409 -0 -0.7660444431189782355 4.021733326374635098 0 -3.374634950854331628 1 I I #
DXID-attrib $-1 -1 $-1 $-1 $132 @10 ASM ENTITY @36 74b1b650-bc87-407a-a5fa-c0402b95e23d #
face $160 -1 $-1 $161 $162 $5 $-1 $163 forward single #
loop $-1 -1 $-1 $-1 $164 $132 #
plane-surface $-1 -1 $-1 7.250000000000000888 7.250000000000000888 5 0 1 0 -10 0 0 forward_v I I I I #
loop $-1 -1 $-1 $-1 $165 $120 #
coedge $-1 -1 $-1 $151 $151 $137 $153 reversed $135 $-1 #
coedge $-1 -1 $-1 $152 $152 $166 $167 reversed $136 $-1 #
edge $168 -1 $-1 $169 -6.283185307179586232 $169 -0 $137 $170 forward @7 unknown #
vertex $-1 -1 $-1 $138 $171 #
intcurve-curve $-1 -1 $-1 forward { surfintcur full nubs 3 periodic 17 
	0 3 0.09394877423511130421 2 0.1878975484702226084 2 0.2817284542252893598 2 0.3755593599803560556 2 
	0.4693902657354227514 2 0.5632211714904894473 2 0.6571699457256007237 2 0.7511187199607120002 2 0.8450674941958229436 2 
	0.9390162684309337759 2 1.032847174186000583 2 1.126678079941067168 2 1.220508985696133752 2 1.314339891451200337 2 
	1.40828866568631117 2 1.502237439921422002 3 
	15.4484843343151006 2.458500000000000796 77.6664681471891214 
	15.24718730756987384 2.45850000000000124 77.42657169238697179 
	15.0110119951919625 2.395114792783102242 77.19279095862648887 
	14.54134699031597222 2.143130370283448549 76.79803955695527407 
	14.30911258824788845 1.954686408407388498 76.6354788872549193 
	13.92820724096011986 1.522428960787440388 76.39082440068628443 
	13.75296403846320104 1.248522103822830243 76.29160766153179907 
	13.51496914333858612 0.6438296565111013559 76.16216034427145587 
	13.45324123450206422 0.3127696858502219124 76.13133207552783688 
	13.45324123450206422 -0.3127696858502226895 76.13133207552783688 
	13.51496914333858612 -0.643829656511097026 76.16216034427147008 
	13.75296403846320104 -1.248522103822825802 76.29160766153179907 
	13.92820724096011986 -1.522428960787440833 76.39082440068628443 
	14.30911258824788845 -1.954686408407388942 76.6354788872549193 
	14.54134699031597222 -2.143130370283448549 76.79803955695527407 
	15.0110119951919625 -2.395114792783102242 77.19279095862648887 
	15.24718730756987384 -2.45850000000000124 77.42657169238697179 
	15.6497813610603238 -2.458499999999999908 77.906364601991271 
	15.83899902756817113 -2.395114792783102686 78.17954747908225954 
	16.14619679623577753 -2.143130370283451658 78.71062507873433844 
	16.26596072338086074 -1.954686408407388498 78.96755968246091584 
	16.44075483914275537 -1.522428960787441055 79.38516202738439631 
	16.50803359032858353 -1.248522103822822471 79.57497169781427715 
	16.59418693214076512 -0.6438296565110891434 79.83182920645646163 
	16.61382791133077674 -0.3127696858502211352 79.8979726023438559 
	16.61382791133077674 0.3127696858502228006 79.8979726023438559 
	16.59418693214076512 0.6438296565110989134 79.83182920645646163 
	16.50803359032858353 1.248522103822830909 79.57497169781427715 
	16.44075483914275537 1.522428960787441943 79.38516202738439631 
	16.26596072338086074 1.954686408407388942 78.96755968246091584 
	16.14619679623578108 2.143130370283446773 78.71062507873433844 
	15.83899902756817468 2.39511479278310091 78.17954747908227375 
	15.6497813610603238 2.458499999999999908 77.906364601991271 
	15.4484843343151006 2.458500000000000796 77.6664681471891214 
	0.001844647478477040798 
	
	cone 16.68053012562223358 0 76.63265897810978799 -0.7660444431189781245 0 0.6427876096865394739 0 2.458499999999999908 0 1 I I -0 1 2.458499999999999908 reversed I I I I 
	cone 34.94179719763938863 0 92.63941145712507819 -0.6427876096865391409 0 -0.7660444431189782355 4.48135999224602255 0 -3.760307516666253846 1 I I -0 -1 5.849999999999999645 forward I I I I 
	nullbs 
	nullbs 
	I I 
	0 
	0 
	0 
	} I I #
intcurve-curve $-1 -1 $-1 forward { surfintcur full nubs 3 open 9 
	1.120979535336692479 3 1.214371196828063271 2 1.307762858319434063 2 1.401201119384179128 2 1.494639380448924193 3 
	1.588077641513668592 2 1.681515902578412769 2 1.774907564069783561 2 1.868299225561154575 3 
	15.54136569096421638 -6.07153216591882483e-16 80.79787525590502639 
	15.54136569096421638 -0.3113055383045699731 80.79787525590502639 
	15.51791504865774129 -0.6417158170644117199 80.7356820651017415 
	15.41702008270061874 -1.246758950773661168 80.49179501527007119 
	15.33888896180229366 -1.521577957711590656 80.31084818428608685 
	15.14212589992528457 -1.955374283916692102 79.90967111062269623 
	15.00989480398082954 -2.144126110825476772 79.66193148229052667 
	14.68462784985830005 -2.395746293168293128 79.14524377538262456 
	14.4903445578572132 -2.458500000000000796 78.87702617055271048 
	14.29014136958029724 -2.458500000000000796 78.63843330167489398 
	14.08993818130338838 -2.45850000000000124 78.39984043279706327 
	13.85953234417966584 -2.395746293168301122 78.1619332422567652 
	13.40717629836931835 -2.144126110825492315 77.75188594531077513 
	13.18616208050108263 -1.955374283916685663 77.57864420183962295 
	12.82524733515373505 -1.521577957711587992 77.31520674523331138 
	12.66061681988077403 -1.246758950773678931 77.20684152416610857 
	12.43795518932149946 -0.6417158170644314819 77.06512883769180178 
	12.38077901413549675 -0.3113055383045686964 77.03123472908900737 
	12.38077901413549675 7.979727989493312634e-16 77.03123472908900737 
	0.00177308334792820768 
	
	cone 16.68053012562223358 0 76.63265897810978799 -0.7660444431189781245 0 0.6427876096865394739 0 2.458499999999999908 0 1 I I -0 1 2.458499999999999908 reversed I I I I 
	cone -19.05236201602992097 0 28.29167823513090596 0.6427876096865393629 0 0.7660444431189781245 0 7.250000000000000888 0 1 I I -0 1 7.250000000000000888 forward I I I I 
	nullbs 
	nullbs 
	I I 
	0 
	0 
	0 
	} I I #
point $-1 -1 $-1 12.38077901413550386 0 77.03123472908899316 #
point $-1 -1 $-1 15.54136569096421994 0 80.79787525590501218 #
point $-1 -1 $-1 -13.10226586059563658 0 27.21517661363351692 #
DXID-attrib $-1 -1 $-1 $-1 $147 @10 ASM ENTITY @36 99fd7ccb-dc0e-467a-9177-db9d1f6207fb #
face $172 -1 $-1 $173 $174 $5 $-1 $175 forward single #
loop $-1 -1 $-1 $176 $166 $147 #
plane-surface $-1 -1 $-1 29.38797498502680483 -7.250000000000000888 97.29962162735247944 0.6427876096865391409 0 0.7660444431189782355 7.660444431189782577 0 -6.427876096865391631 forward_v I I I I #
coedge $-1 -1 $-1 $177 $178 $179 $180 reversed $148 $-1 #
coedge $-1 -1 $-1 $181 $179 $182 $183 reversed $150 $-1 #
coedge $-1 -1 $-1 $166 $166 $152 $167 forward $162 $-1 #
edge $-1 -1 $-1 $184 0 $184 6.283185307179586232 $166 $185 forward @7 unknown #
DXID-attrib $-1 -1 $-1 $-1 $153 @10 ASM ENTITY @36 7562e0c1-13f1-4aea-b021-39c8148368e2 #
vertex $-1 -1 $-1 $153 $186 #
ellipse-curve $-1 -1 $-1 -17.12399918697027346 0 30.58981156448784589 -0.6427876096865391409 0 -0.7660444431189782355 4.48135999224602255 0 -3.760307516666253846 1 I I #
point $-1 -1 $-1 15.44848433431509349 2.458499999999999908 77.66646814718913561 #
DXID-attrib $-1 -1 $-1 $-1 $161 @10 ASM ENTITY @36 dcb732c3-6138-40a3-b1fb-41ec68d87fc6 #
face $187 -1 $-1 $188 $189 $5 $-1 $190 forward single #
loop $-1 -1 $-1 $-1 $191 $161 #
plane-surface $-1 -1 $-1 40.49561941025199729 -7.250000000000000888 87.97920128689767694 0.7660444431189780135 0 -0.6427876096865394739 -6.427876096865395183 -0 -7.660444431189779912 forward_v I I I I #
loop $-1 -1 $-1 $-1 $192 $147 #
coedge $-1 -1 $-1 $193 $164 $194 $195 forward $148 $-1 #
coedge $-1 -1 $-1 $164 $196 $197 $198 forward $148 $-1 #
coedge $-1 -1 $-1 $165 $199 $164 $180 forward $150 $-1 #
edge $-1 -1 $-1 $200 -8.399999999999998579 $201 -1.427275208435528357e-16 $164 $202 forward @7 tangent #
coedge $-1 -1 $-1 $199 $165 $203 $204 reversed $150 $-1 #
coedge $-1 -1 $-1 $197 $205 $165 $183 forward $189 $-1 #
edge $-1 -1 $-1 $206 -3.141592653589793116 $201 0 $182 $207 forward @7 unknown #
vertex $-1 -1 $-1 $167 $208 #
ellipse-curve $-1 -1 $-1 34.94179719763938863 0 92.63941145712507819 -0.6427876096865391409 0 -0.7660444431189782355 4.48135999224602255 0 -3.760307516666253846 1 I I #
point $-1 -1 $-1 -12.64263919472425002 0 26.82950404782158671 #
DXID-attrib $-1 -1 $-1 $-1 $173 @10 ASM ENTITY @36 5e92e229-95fe-49ae-92e7-fabaf2ab1d29 #
face $209 -1 $-1 $210 $211 $5 $-1 $212 forward single #
loop $-1 -1 $-1 $-1 $182 $173 #
plane-surface $-1 -1 $-1 -13.49853980341732829 -7.250000000000000888 23.63146806490349405 -0.6427876096865394739 0 -0.7660444431189780135 -7.660444431189779912 0 6.427876096865395183 forward_v I I I I #
coedge $-1 -1 $-1 $213 $214 $215 $216 reversed $174 $-1 #
coedge $-1 -1 $-1 $217 $194 $199 $218 forward $176 $-1 #
coedge $-1 -1 $-1 $219 $177 $220 $221 forward $148 $-1 #
coedge $-1 -1 $-1 $192 $222 $177 $195 reversed $176 $-1 #
edge $223 -1 $-1 $200 -0.7250000000000016431 $224 -0 $194 $225 forward @7 unknown #
coedge $-1 -1 $-1 $178 $226 $227 $228 forward $148 $-1 #
coedge $-1 -1 $-1 $229 $182 $178 $198 reversed $189 $-1 #
edge $230 -1 $-1 $231 -1.449999999999999956 $201 -0.7249999999999997558 $197 $232 forward @7 unknown #
coedge $-1 -1 $-1 $179 $181 $192 $218 reversed $150 $-1 #
vertex $-1 -1 $-1 $218 $233 #
vertex $-1 -1 $-1 $183 $234 #
straight-curve $-1 -1 $-1 -19.05236201602992452 7.250000000000001776 28.29167823513090596 -6.427876096865392519 0 -7.660444431189779912 I I #
coedge $-1 -1 $-1 $235 $236 $181 $204 forward $237 $-1 #
edge $-1 -1 $-1 $238 -8.399999999999998579 $206 -1.427275208435528357e-16 $203 $239 forward @7 tangent #
coedge $-1 -1 $-1 $182 $229 $235 $240 reversed $189 $-1 #
vertex $-1 -1 $-1 $183 $241 #
ellipse-curve $-1 -1 $-1 -19.05236201602992097 0 28.29167823513090596 -0.6427876096865394739 0 -0.7660444431189780135 0 7.250000000000000888 0 1 I I #
point $-1 -1 $-1 39.42315718988541562 0 88.87910394045881901 #
DXID-attrib $-1 -1 $-1 $-1 $188 @10 ASM ENTITY @36 61cf1fef-58a7-4c54-b976-fdb39da6ee3f #
face $242 -1 $-1 $243 $244 $5 $-1 $245 forward single #
loop $-1 -1 $-1 $-1 $246 $188 #
plane-surface $-1 -1 $-1 -7.25 -7.250000000000000888 31.07818782409401592 0.7660444431189781245 0 -0.6427876096865393629 -6.427876096865393407 -0 -7.660444431189780801 forward_v I I I I #
coedge $-1 -1 $-1 $220 $191 $247 $248 forward $174 $-1 #
coedge $-1 -1 $-1 $191 $220 $222 $249 reversed $174 $-1 #
coedge $-1 -1 $-1 $236 $250 $191 $216 forward $237 $-1 #
edge $251 -1 $-1 $252 0 $253 5.17210022552620341 $215 $254 forward @7 unknown #
coedge $-1 -1 $-1 $222 $192 $236 $255 reversed $176 $-1 #
edge $-1 -1 $-1 $200 6.661338147750939243e-16 $238 3.141592653589792672 $192 $256 forward @7 unknown #
coedge $-1 -1 $-1 $257 $193 $258 $259 reversed $148 $-1 #
coedge $-1 -1 $-1 $214 $213 $193 $221 reversed $174 $-1 #
edge $260 -1 $-1 $224 -5.17210022552620341 $261 -0 $220 $262 forward @7 unknown #
coedge $-1 -1 $-1 $194 $217 $214 $249 forward $176 $-1 #
DXID-attrib $-1 -1 $-1 $-1 $195 @10 ASM ENTITY @36 b3eca2b8-82b4-48a7-9eaf-832c415ad51c #
vertex $-1 -1 $-1 $195 $263 #
straight-curve $-1 -1 $-1 40.49561941025199729 7.250000000000000888 87.97920128689766273 7.660444431189782577 0 -6.427876096865391631 I I #
coedge $-1 -1 $-1 $196 $257 $264 $265 forward $148 $-1 #
coedge $-1 -1 $-1 $266 $267 $196 $228 reversed $211 $-1 #
edge $268 -1 $-1 $269 -0.9721002255262015668 $231 -0 $227 $270 forward @7 unknown #
coedge $-1 -1 $-1 $205 $197 $267 $271 reversed $189 $-1 #
DXID-attrib $-1 -1 $-1 $-1 $198 @10 ASM ENTITY @36 f90a3db0-3c52-4459-b718-ffde79147ecc #
vertex $-1 -1 $-1 $228 $272 #
straight-curve $-1 -1 $-1 -24.60618422864250832 7.250000000000000888 32.95188840535831787 -7.660444431189780801 0 6.427876096865395183 I I #
point $-1 -1 $-1 34.94179719763937442 7.250000000000000888 92.63941145712506398 #
point $-1 -1 $-1 -19.05236201602992097 7.250000000000000888 28.29167823513090596 #
coedge $-1 -1 $-1 $273 $203 $205 $240 forward $237 $-1 #
coedge $-1 -1 $-1 $203 $215 $217 $255 forward $237 $-1 #
loop $-1 -1 $-1 $-1 $203 $274 #
vertex $-1 -1 $-1 $204 $275 #
straight-curve $-1 -1 $-1 -19.05236201602992452 -7.250000000000001776 28.29167823513090596 -6.427876096865392519 -0 -7.660444431189779912 I I #
edge $276 -1 $-1 $206 0.7249999999999997558 $277 1.449999999999999956 $235 $278 forward @7 unknown #
point $-1 -1 $-1 -19.05236201602992097 -7.250000000000000888 28.29167823513090596 #
DXID-attrib $-1 -1 $-1 $-1 $210 @10 ASM ENTITY @36 0d2a11a0-8602-47b8-b8e3-de3d732a734d #
face $279 -1 $-1 $280 $281 $5 $-1 $282 forward single #
loop $-1 -1 $-1 $-1 $283 $210 #
plane-surface $-1 -1 $-1 -7.250000000000000888 7.250000000000000888 5 -1 0 0 0 -10 0 forward_v I I I I #
coedge $-1 -1 $-1 $267 $266 $273 $284 reversed $211 $-1 #
coedge $-1 -1 $-1 $285 $258 $213 $248 reversed $286 $-1 #
edge $287 -1 $-1 $252 0 $261 1.450000000000000178 $213 $288 forward @7 unknown #
edge $289 -1 $-1 $253 0 $224 1.450000000000000178 $222 $290 forward @7 unknown #
coedge $-1 -1 $-1 $215 $291 $285 $292 forward $237 $-1 #
DXID-attrib $-1 -1 $-1 $-1 $216 @10 ASM ENTITY @36 02d9b11a-2b34-4366-b90c-95b9c9bb2e7f #
vertex $-1 -1 $-1 $216 $293 #
vertex $-1 -1 $-1 $255 $294 #
straight-curve $-1 -1 $-1 7.250000000000000888 -7.250000000000000888 48.35861491671005297 6.427876096865395183 0 7.660444431189780801 F 0 F 5.17210022552620341 #
edge $295 -1 $-1 $253 0 $238 0.7250000000000016431 $236 $296 forward @7 unknown #
ellipse-curve $-1 -1 $-1 34.94179719763940284 0 92.63941145712507819 0.6427876096865391409 0 0.7660444431189782355 0 7.250000000000000888 0 1 I I #
coedge $-1 -1 $-1 $226 $219 $297 $298 reversed $148 $-1 #
coedge $-1 -1 $-1 $247 $299 $219 $259 forward $286 $-1 #
edge $-1 -1 $-1 $300 0.3999999999999999112 $261 4.335861491671005652 $258 $301 forward @7 unknown #
DXID-attrib $-1 -1 $-1 $-1 $221 @10 ASM ENTITY @36 ee085664-6a21-4341-a74a-8b54b6887a6e #
vertex $-1 -1 $-1 $221 $302 #
straight-curve $-1 -1 $-1 7.250000000000000888 7.250000000000000888 48.35861491671005297 -6.427876096865395183 -0 -7.660444431189780801 I I #
point $-1 -1 $-1 40.49561941025199729 7.250000000000000888 87.97920128689766273 #
coedge $-1 -1 $-1 $303 $283 $226 $265 reversed $244 $-1 #
edge $304 -1 $-1 $305 0.3999999999999999112 $269 2.607818782409401681 $226 $306 forward @7 unknown #
coedge $-1 -1 $-1 $246 $227 $283 $307 reversed $211 $-1 #
coedge $-1 -1 $-1 $227 $246 $229 $271 forward $211 $-1 #
DXID-attrib $-1 -1 $-1 $-1 $228 @10 ASM ENTITY @36 196079dd-7e03-408c-a34d-86df693612ee #
vertex $-1 -1 $-1 $265 $308 #
straight-curve $-1 -1 $-1 -13.49853980341732829 7.250000000000000888 23.63146806490349405 -6.427876096865393407 -0 -7.660444431189780801 I I #
edge $309 -1 $-1 $277 0 $231 1.450000000000000178 $267 $310 forward @7 unknown #
point $-1 -1 $-1 -13.49853980341732829 7.250000000000000888 23.63146806490349405 #
coedge $-1 -1 $-1 $311 $235 $246 $284 forward $237 $-1 #
face $312 -1 $-1 $313 $237 $5 $-1 $314 forward single #
point $-1 -1 $-1 34.94179719763937442 -7.250000000000000888 92.63941145712506398 #
DXID-attrib $-1 -1 $-1 $-1 $240 @10 ASM ENTITY @36 da4f6fad-de63-4231-943b-b76fd680c244 #
vertex $-1 -1 $-1 $271 $315 #
straight-curve $-1 -1 $-1 -24.60618422864250832 -7.250000000000000888 32.95188840535831787 7.660444431189780801 0 -6.427876096865395183 F -2.854550416871057701e-16 F 1.449999999999999956 #
DXID-attrib $-1 -1 $-1 $-1 $243 @10 ASM ENTITY @36 9abec9b8-5d08-473d-8377-ced01d4b6b15 #
face $316 -1 $-1 $317 $318 $5 $-1 $319 forward single #
loop $-1 -1 $-1 $-1 $320 $243 #
plane-surface $-1 -1 $-1 -3.625000000000000444 -9.25 7 0 -0.7071067811865475727 0.7071067811865475727 10 0 0 forward_v I I I I #
coedge $-1 -1 $-1 $264 $321 $266 $307 forward $244 $-1 #
edge $322 -1 $-1 $277 0 $323 0.9721002255262015668 $273 $324 forward @7 unknown #
coedge $-1 -1 $-1 $299 $247 $250 $292 reversed $286 $-1 #
loop $-1 -1 $-1 $-1 $299 $325 #
DXID-attrib $-1 -1 $-1 $-1 $248 @10 ASM ENTITY @36 ecb28f7b-e2ca-43ba-9d0f-60a96cde3734 #
straight-curve $-1 -1 $-1 7.250000000000000888 -7.250000000000000888 48.35861491671005297 0 10 0 I I #
DXID-attrib $-1 -1 $-1 $-1 $249 @10 ASM ENTITY @36 ad6bdb33-2482-4743-bb92-434bc7ca1622 #
straight-curve $-1 -1 $-1 40.49561941025199729 -7.250000000000000888 87.97920128689766273 0 10 0 I I #
coedge $-1 -1 $-1 $250 $311 $320 $326 reversed $237 $-1 #
edge $-1 -1 $-1 $327 0.3999999999999999112 $252 4.335861491671005652 $285 $328 forward @7 unknown #
point $-1 -1 $-1 7.250000000000000888 -7.250000000000000888 48.35861491671005297 #
point $-1 -1 $-1 40.49561941025199729 -7.250000000000000888 87.97920128689766273 #
DXID-attrib $-1 -1 $-1 $-1 $255 @10 ASM ENTITY @36 7051d410-9d86-4749-8873-3384635d842d #
straight-curve $-1 -1 $-1 40.49561941025199729 -7.250000000000000888 87.97920128689766273 -7.660444431189782577 0 6.427876096865391631 F 0 F 1.450000000000000844 #
coedge $-1 -1 $-1 $329 $330 $257 $298 forward $331 $-1 #
edge $-1 -1 $-1 $305 -1.087500000000000133 $300 0.3625000000000000444 $257 $332 forward @7 unknown #
coedge $-1 -1 $-1 $258 $285 $333 $334 reversed $286 $-1 #
vertex $-1 -1 $-1 $259 $335 #
straight-curve $-1 -1 $-1 7.250000000000000888 7.250000000000000888 5 0 0 10 I I #
point $-1 -1 $-1 7.250000000000003553 7.250000000000000888 48.35861491671005297 #
coedge $-1 -1 $-1 $321 $264 $336 $337 reversed $244 $-1 #
DXID-attrib $-1 -1 $-1 $-1 $265 @10 ASM ENTITY @36 bf9721cd-d2a9-4ce8-b77c-f9dd9794e30e #
vertex $-1 -1 $-1 $298 $338 #
straight-curve $-1 -1 $-1 -7.250000000000000888 7.250000000000000888 5 0 0 10 I I #
edge $-1 -1 $-1 $323 -0.7250000000000000888 $269 0.7250000000000000888 $283 $339 forward @7 unknown #
point $-1 -1 $-1 -7.250000000000000888 7.250000000000000888 31.07818782409401592 #
DXID-attrib $-1 -1 $-1 $-1 $271 @10 ASM ENTITY @36 38db5f59-b193-4116-8245-8ac6de6802f5 #
straight-curve $-1 -1 $-1 -13.49853980341732829 -7.250000000000000888 23.63146806490349405 0 10 0 I I #
coedge $-1 -1 $-1 $291 $273 $321 $340 reversed $237 $-1 #
DXID-attrib $-1 -1 $-1 $-1 $274 @10 ASM ENTITY @36 4d945fc5-110a-481c-b8ec-1271cdd5f6da #
face $341 -1 $-1 $325 $342 $5 $-1 $343 forward single #
plane-surface $-1 -1 $-1 -7.250000000000000888 -7.250000000000000888 5 0 -1 0 10 0 0 forward_v I I I I #
point $-1 -1 $-1 -13.49853980341732829 -7.250000000000000888 23.63146806490349405 #
DXID-attrib $-1 -1 $-1 $-1 $280 @10 ASM ENTITY @36 2b8f8d44-2dbd-411c-bfa7-712e2e1db1cf #
face $344 -1 $-1 $345 $331 $5 $-1 $346 forward single #
loop $-1 -1 $-1 $-1 $347 $280 #
plane-surface $-1 -1 $-1 -9.25 3.625000000000000444 7 -0.7071067811865475727 0 0.7071067811865475727 7.071067811865475505 0 7.071067811865475505 forward_v I I I I #
coedge $-1 -1 $-1 $348 $349 $291 $326 forward $281 $-1 #
coedge $-1 -1 $-1 $283 $303 $311 $340 forward $244 $-1 #
DXID-attrib $-1 -1 $-1 $-1 $284 @10 ASM ENTITY @36 03cf4194-c315-4131-b38a-951c70d19280 #
vertex $-1 -1 $-1 $284 $350 #
straight-curve $-1 -1 $-1 -13.49853980341732829 -7.250000000000000888 23.63146806490349405 6.427876096865393407 0 7.660444431189780801 F 0 F 0.9721002255262015668 #
face $351 -1 $-1 $352 $286 $5 $-1 $353 forward single #
edge $-1 -1 $-1 $327 -1.087500000000000133 $354 0.3625000000000000444 $291 $355 forward @7 unknown #
vertex $-1 -1 $-1 $326 $356 #
straight-curve $-1 -1 $-1 7.250000000000000888 -7.250000000000000888 5 0 0 10 I I #
coedge $-1 -1 $-1 $357 $297 $358 $359 forward $331 $-1 #
coedge $-1 -1 $-1 $297 $357 $360 $361 reversed $331 $-1 #
loop $-1 -1 $-1 $-1 $357 $317 #
straight-curve $-1 -1 $-1 3.625000000000000444 7.250000000000000888 9 10 0 0 F -3.302501000000000353 F 2.57750099999999982 #
coedge $-1 -1 $-1 $362 $358 $299 $334 forward $363 $-1 #
edge $-1 -1 $-1 $300 -1.087500000000000133 $327 0.3625000000000000444 $299 $364 forward @7 unknown #
point $-1 -1 $-1 7.250000000000000888 7.250000000000000888 9 #
coedge $-1 -1 $-1 $360 $365 $303 $337 forward $318 $-1 #
edge $-1 -1 $-1 $354 -1.087500000000000133 $305 0.3625000000000000444 $303 $366 forward @7 unknown #
point $-1 -1 $-1 -7.250000000000000888 7.250000000000000888 9 #
straight-curve $-1 -1 $-1 -7.250000000000000888 0 31.07818782409402303 0 10 0 I I #
edge $367 -1 $-1 $354 0.3999999999999999112 $323 2.607818782409401681 $321 $368 forward @7 unknown #
DXID-attrib $-1 -1 $-1 $-1 $313 @10 ASM ENTITY @36 51e6afe1-7b3c-48f2-807f-fe3ecce12b2c #
loop $-1 -1 $-1 $369 $370 $313 #
plane-surface $-1 -1 $-1 0 0 5 0 0 1 10 0 0 forward_v I I I I #
DXID-attrib $-1 -1 $-1 $-1 $317 @10 ASM ENTITY @36 ac297cdb-5708-465a-b4c6-5c26378613ec #
face $371 -1 $-1 $274 $363 $5 $-1 $372 forward single #
plane-surface $-1 -1 $-1 3.625000000000000444 9.25 7 0 0.7071067811865475727 0.7071067811865475727 10 0 0 forward_v I I I I #
coedge $-1 -1 $-1 $365 $360 $373 $374 forward $318 $-1 #
coedge $-1 -1 $-1 $375 $320 $365 $376 forward $281 $-1 #
coedge $-1 -1 $-1 $320 $375 $362 $377 forward $281 $-1 #
point $-1 -1 $-1 -7.250000000000000888 -7.250000000000000888 31.07818782409401592 #
DXID-attrib $-1 -1 $-1 $-1 $325 @10 ASM ENTITY @36 c6f3b992-45c8-4c5f-9d57-ee97d434ea04 #
face $378 -1 $-1 $379 $380 $5 $-1 $381 reversed single #
plane-surface $-1 -1 $-1 7.250000000000000888 -7.250000000000000888 5 1 0 0 0 10 0 forward_v I I I I #
vertex $-1 -1 $-1 $337 $382 #
straight-curve $-1 -1 $-1 -3.625000000000000444 -7.250000000000000888 9 -10 0 0 F -3.302501000000000353 F 2.57750099999999982 #
point $-1 -1 $-1 7.250000000000000888 -7.250000000000000888 9 #
coedge $-1 -1 $-1 $330 $329 $383 $384 forward $331 $-1 #
coedge $-1 -1 $-1 $333 $385 $329 $359 reversed $363 $-1 #
edge $-1 -1 $-1 $300 0 $386 0.6928203230275509217 $329 $387 forward @7 unknown #
coedge $-1 -1 $-1 $347 $336 $330 $361 forward $318 $-1 #
edge $-1 -1 $-1 $305 0 $388 0.6928203230275509217 $360 $389 forward @7 unknown #
coedge $-1 -1 $-1 $385 $333 $349 $377 reversed $363 $-1 #
loop $-1 -1 $-1 $-1 $385 $345 #
straight-curve $-1 -1 $-1 7.250000000000000888 -3.625000000000000444 9 0 -10 0 F -3.302501000000000353 F 2.57750099999999982 #
coedge $-1 -1 $-1 $336 $347 $348 $376 reversed $318 $-1 #
straight-curve $-1 -1 $-1 -7.250000000000000888 3.625000000000000444 9 0 10 0 F -3.302501000000000353 F 2.57750099999999982 #
DXID-attrib $-1 -1 $-1 $-1 $340 @10 ASM ENTITY @36 1738f05e-1263-414b-ad89-009825e4aee9 #
straight-curve $-1 -1 $-1 -7.250000000000000888 -7.250000000000000888 5 0 0 10 I I #
loop $-1 -1 $-1 $390 $391 $313 #
coedge $-1 -1 $-1 $370 $370 $392 $393 forward $342 $-1 #
DXID-attrib $-1 -1 $-1 $-1 $345 @10 ASM ENTITY @36 763d6758-4977-45e7-9a48-814a58b41e50 #
plane-surface $-1 -1 $-1 9.25 -3.625000000000000444 7 0.7071067811865475727 0 0.7071067811865475727 7.071067811865475505 0 -7.071067811865475505 forward_v I I I I #
coedge $-1 -1 $-1 $383 $394 $347 $374 reversed $395 $-1 #
edge $-1 -1 $-1 $388 -0.7624999999999999556 $396 1.487500000000000044 $373 $397 forward @7 unknown #
coedge $-1 -1 $-1 $349 $348 $394 $398 forward $281 $-1 #
edge $-1 -1 $-1 $354 -0 $396 0.6928203230275509217 $348 $399 forward @7 unknown #
edge $-1 -1 $-1 $400 0 $327 0.6928203230275509217 $349 $401 forward @7 unknown #
DXID-attrib $-1 -1 $-1 $-1 $352 @10 ASM ENTITY @36 4799c7a7-7e6a-4ef8-b993-b97583c80362 #
face $402 -1 $-1 $403 $404 $5 $-1 $405 reversed single #
loop $-1 -1 $-1 $406 $407 $352 #
cone-surface $-1 -1 $-1 14.14213562373094923 -14.14213562373095101 3.549999999999999822 0 0 1 2.458499999999999908 0 0 1 I I 0 1 2.458499999999999908 forward I I I I #
point $-1 -1 $-1 -7.250000000000000888 -7.250000000000000888 9 #
coedge $-1 -1 $-1 $408 $373 $357 $384 reversed $395 $-1 #
edge $-1 -1 $-1 $386 -0.7624999999999999556 $388 1.487500000000000044 $383 $409 forward @7 unknown #
coedge $-1 -1 $-1 $358 $362 $408 $410 forward $363 $-1 #
vertex $-1 -1 $-1 $384 $411 #
straight-curve $-1 -1 $-1 7.250000000000000888 7.250000000000000888 9 5.773502691896258199 5.773502691896258199 -5.773502691896258199 F 0 F 0.6928203230275509217 #
vertex $-1 -1 $-1 $374 $412 #
straight-curve $-1 -1 $-1 -7.250000000000000888 7.250000000000000888 9 -5.773502691896258199 5.773502691896258199 -5.773502691896258199 F 0 F 0.6928203230275509217 #
loop $-1 -1 $-1 $413 $414 $313 #
coedge $-1 -1 $-1 $391 $391 $415 $416 forward $369 $-1 #
coedge $-1 -1 $-1 $392 $392 $370 $393 reversed $417 $-1 #
edge $418 -1 $-1 $419 0 $419 6.283185307179586232 $392 $420 forward @7 unknown #
coedge $-1 -1 $-1 $373 $408 $375 $398 reversed $395 $-1 #
loop $-1 -1 $-1 $-1 $394 $313 #
vertex $-1 -1 $-1 $376 $421 #
straight-curve $-1 -1 $-1 -11.25 3.625000000000000444 5 0 -10 0 F -2.57750099999999982 F 3.302501000000000353 #
edge $-1 -1 $-1 $396 -0.7624999999999999556 $400 1.487500000000000044 $394 $422 forward @7 unknown #
straight-curve $-1 -1 $-1 -7.250000000000000888 -7.250000000000000888 9 -5.773502691896258199 -5.773502691896258199 -5.773502691896258199 F -0 F 0.6928203230275509217 #
vertex $-1 -1 $-1 $398 $423 #
straight-curve $-1 -1 $-1 11.25 -11.25 5 -5.773502691896258199 5.773502691896258199 5.773502691896258199 F 0 F 0.6928203230275509217 #
DXID-attrib $-1 -1 $-1 $-1 $379 @10 ASM ENTITY @36 cf997718-704d-452a-8e57-97815141f4d7 #
face $424 -1 $-1 $425 $426 $5 $-1 $427 reversed single #
loop $-1 -1 $-1 $428 $429 $379 #
cone-surface $-1 -1 $-1 -14.14213562373094923 14.14213562373095101 3.549999999999999822 0 0 1 2.458499999999999908 0 0 1 I I 0 1 2.458499999999999908 forward I I I I #
loop $-1 -1 $-1 $-1 $430 $352 #
coedge $-1 -1 $-1 $407 $407 $431 $432 reversed $380 $-1 #
coedge $-1 -1 $-1 $394 $383 $385 $410 reversed $395 $-1 #
straight-curve $-1 -1 $-1 3.625000000000000444 11.25 5 -10 0 0 F -2.57750099999999982 F 3.302501000000000353 #
edge $-1 -1 $-1 $400 -0.7624999999999999556 $386 1.487500000000000044 $408 $433 forward @7 unknown #
point $-1 -1 $-1 11.25 11.25 5 #
point $-1 -1 $-1 -11.25 11.25 5 #
loop $-1 -1 $-1 $434 $435 $313 #
coedge $-1 -1 $-1 $414 $414 $436 $437 forward $390 $-1 #
coedge $-1 -1 $-1 $415 $415 $391 $416 reversed $438 $-1 #
edge $-1 -1 $-1 $439 -3.141592653589793116 $439 3.141592653589793116 $391 $440 forward @7 unknown #
loop $-1 -1 $-1 $441 $392 $442 #
DXID-attrib $-1 -1 $-1 $-1 $393 @10 ASM ENTITY @36 8736bac6-e865-4122-8fba-f8a778581a41 #
vertex $-1 -1 $-1 $393 $443 #
ellipse-curve $-1 -1 $-1 0 0 5 0 0 1 25 0 0 1 I I #
point $-1 -1 $-1 -11.25 -11.25 5 #
straight-curve $-1 -1 $-1 -3.625000000000000444 -11.25 5 10 0 0 F -2.57750099999999982 F 3.302501000000000353 #
point $-1 -1 $-1 11.25 -11.25 5 #
DXID-attrib $-1 -1 $-1 $-1 $403 @10 ASM ENTITY @36 3f7b2745-1f1b-49db-965c-00b34d56c3c5 #
face $444 -1 $-1 $442 $438 $5 $-1 $445 reversed single #
loop $-1 -1 $-1 $446 $436 $403 #
cone-surface $-1 -1 $-1 14.14213562373095101 14.14213562373095101 3.549999999999999822 0 0 1 2.458499999999999908 0 0 1 I I 0 1 2.458499999999999908 forward I I I I #
loop $-1 -1 $-1 $-1 $447 $379 #
coedge $-1 -1 $-1 $429 $429 $435 $448 reversed $404 $-1 #
coedge $-1 -1 $-1 $430 $430 $449 $450 reversed $406 $-1 #
coedge $-1 -1 $-1 $431 $431 $407 $432 forward $434 $-1 #
edge $-1 -1 $-1 $451 -3.141592653589793116 $451 3.141592653589793116 $431 $452 forward @7 unknown #
straight-curve $-1 -1 $-1 11.25 -3.625000000000000444 5 0 10 0 F -2.57750099999999982 F 3.302501000000000353 #
loop $-1 -1 $-1 $395 $431 $313 #
coedge $-1 -1 $-1 $435 $435 $429 $448 forward $413 $-1 #
coedge $-1 -1 $-1 $436 $436 $414 $437 reversed $426 $-1 #
edge $-1 -1 $-1 $453 -3.141592653589793116 $453 3.141592653589793116 $414 $454 forward @7 unknown #
loop $-1 -1 $-1 $455 $415 $425 #
vertex $-1 -1 $-1 $416 $456 #
ellipse-curve $-1 -1 $-1 -14.14213562373095101 -14.14213562373095101 5 -0 -0 -1 2.458499999999999908 0 0 1 I I #
loop $-1 -1 $-1 $-1 $457 $442 #
face $458 -1 $-1 $459 $417 $5 $-1 $460 forward single #
point $-1 -1 $-1 25 0 5 #
DXID-attrib $-1 -1 $-1 $-1 $425 @10 ASM ENTITY @36 2c95e006-0494-45ce-99d8-86c8d6c87aab #
cone-surface $-1 -1 $-1 -14.14213562373095101 -14.14213562373095101 3.549999999999999822 0 0 1 2.458499999999999908 0 0 1 I I 0 1 2.458499999999999908 forward I I I I #
loop $-1 -1 $-1 $-1 $461 $403 #
coedge $-1 -1 $-1 $447 $447 $462 $463 reversed $428 $-1 #
edge $-1 -1 $-1 $464 -3.141592653589793116 $464 3.141592653589793116 $435 $465 forward @7 unknown #
coedge $-1 -1 $-1 $449 $449 $430 $450 forward $466 $-1 #
edge $-1 -1 $-1 $467 0 $467 6.283185307179586232 $449 $468 forward @7 unknown #
vertex $-1 -1 $-1 $432 $469 #
ellipse-curve $-1 -1 $-1 14.14213562373094923 -14.14213562373095101 5 -0 -0 -1 2.458499999999999908 0 0 1 I I #
vertex $-1 -1 $-1 $437 $470 #
ellipse-curve $-1 -1 $-1 14.14213562373095101 14.14213562373095101 5 -0 -0 -1 2.458499999999999908 0 0 1 I I #
loop $-1 -1 $-1 $-1 $471 $425 #
point $-1 -1 $-1 -16.60063562373095181 -14.14213562373095101 5 #
coedge $-1 -1 $-1 $457 $457 $472 $473 forward $441 $-1 #
DXID-attrib $-1 -1 $-1 $-1 $442 @10 ASM ENTITY @36 97fc9b8f-95ed-4aca-8cc7-feda6ffb0e8a #
face $474 -1 $-1 $-1 $466 $5 $-1 $475 reversed single #
cone-surface $-1 -1 $-1 0 0 0 0 0 1 25 0 0 1 I I 0 1 25 forward I I I I #
coedge $-1 -1 $-1 $461 $461 $476 $477 reversed $446 $-1 #
coedge $-1 -1 $-1 $462 $462 $447 $463 forward $478 $-1 #
edge $-1 -1 $-1 $479 0 $479 6.283185307179586232 $462 $480 forward @7 unknown #
vertex $-1 -1 $-1 $448 $481 #
ellipse-curve $-1 -1 $-1 -14.14213562373094923 14.14213562373095101 5 -0 -0 -1 2.458499999999999908 0 0 1 I I #
loop $-1 -1 $-1 $478 $449 $459 #
vertex $-1 -1 $-1 $450 $482 #
ellipse-curve $-1 -1 $-1 14.14213562373094923 -14.14213562373095101 0 0 0 1 2.458499999999999908 0 0 1 I I #
point $-1 -1 $-1 11.68363562373095021 -14.14213562373095101 5 #
point $-1 -1 $-1 11.68363562373095021 14.14213562373095101 5 #
coedge $-1 -1 $-1 $471 $471 $483 $484 reversed $455 $-1 #
coedge $-1 -1 $-1 $472 $472 $457 $473 reversed $485 $-1 #
edge $486 -1 $-1 $487 0 $487 6.283185307179586232 $457 $488 forward @7 unknown #
DXID-attrib $-1 -1 $-1 $-1 $459 @10 ASM ENTITY @36 43bf8c37-939d-471b-9bb7-840ae340dcaf #
plane-surface $-1 -1 $-1 0 0 0 0 0 1 10 0 0 forward_v I I I I #
coedge $-1 -1 $-1 $476 $476 $461 $477 forward $489 $-1 #
edge $-1 -1 $-1 $490 0 $490 6.283185307179586232 $476 $491 forward @7 unknown #
loop $-1 -1 $-1 $489 $462 $459 #
vertex $-1 -1 $-1 $463 $492 #
ellipse-curve $-1 -1 $-1 -14.14213562373094923 14.14213562373095101 0 0 0 1 2.458499999999999908 0 0 1 I I #
point $-1 -1 $-1 -16.60063562373094825 14.14213562373095101 5 #
point $-1 -1 $-1 16.60063562373094825 -14.14213562373095101 0 #
coedge $-1 -1 $-1 $483 $483 $471 $484 forward $493 $-1 #
edge $-1 -1 $-1 $494 0 $494 6.283185307179586232 $483 $495 forward @7 unknown #
loop $-1 -1 $-1 $-1 $472 $459 #
DXID-attrib $-1 -1 $-1 $-1 $473 @10 ASM ENTITY @36 faca4ce2-b3bf-4494-b890-17758f6ebc6a #
vertex $-1 -1 $-1 $473 $496 #
ellipse-curve $-1 -1 $-1 0 0 0 0 0 1 25 0 0 1 I I #
loop $-1 -1 $-1 $493 $476 $459 #
vertex $-1 -1 $-1 $477 $497 #
ellipse-curve $-1 -1 $-1 14.14213562373095101 14.14213562373095101 0 0 0 1 2.458499999999999908 0 0 1 I I #
point $-1 -1 $-1 -11.68363562373095021 14.14213562373095101 0 #
loop $-1 -1 $-1 $485 $483 $459 #
vertex $-1 -1 $-1 $484 $498 #
ellipse-curve $-1 -1 $-1 -14.14213562373095101 -14.14213562373095101 0 0 0 1 2.458499999999999908 0 0 1 I I #
point $-1 -1 $-1 25 0 0 #
point $-1 -1 $-1 16.60063562373095181 14.14213562373095101 0 #
point $-1 -1 $-1 -11.68363562373095021 -14.14213562373095101 0 #
End-of-ACIS-data 